# xmcd
#
# Track frame offsets:
#	182
#	19807
#	34962
#	69762
#	87250
#	106815
#	133947
#
# Disc length: 2215 seconds
#
# Revision: 0
# Processed by: cddbd v1.4PL0 Copyright (c) Steve Scherf et al.
# Submitted via: EasyCDDAExtractor 4.6.0.1
#
DISCID=5508a507
DTITLE=Jeff healey - destructive haert
DYEAR=1900
DGENRE=Blues
TTITLE0=further on up the road
TTITLE1=my little girl
TTITLE2=blue jean blues
TTITLE3=confidence man
TTITLE4=i need to be loved
TTITLE5=white room
TTITLE6=i see the light
EXTD=
EXTT0=
EXTT1=
EXTT2=
EXTT3=
EXTT4=
EXTT5=
EXTT6=
PLAYORDER=
